{
    "asset" : {
        "generator" : "Khronos glTF Blender I/O v1.5.17",
        "version" : "2.0"
    },
    "scene" : 0,
    "scenes" : [
        {
            "name" : "Scene",
            "nodes" : [
                0,
                1,
                2,
                3,
                4,
                5
            ]
        }
    ],
    "nodes" : [
        {
            "mesh" : 0,
            "name" : "discoInterior",
            "rotation" : [
                0.7071068286895752,
                0,
                0,
                0.7071067094802856
            ],
            "scale" : [
                0.3303627371788025,
                0.3303627371788025,
                0.3303627371788025
            ],
            "translation" : [
                0.0034178965725004673,
                0,
                0
            ]
        },
        {
            "mesh" : 1,
            "name" : "cristal",
            "rotation" : [
                0.7071068286895752,
                0,
                0,
                0.7071067094802856
            ],
            "scale" : [
                0.3303627371788025,
                0.3303627371788025,
                0.3303627371788025
            ],
            "translation" : [
                0.0034178965725004673,
                0,
                0
            ]
        },
        {
            "mesh" : 2,
            "name" : "botonManecilla",
            "rotation" : [
                -0.28824520111083984,
                -0.6456892490386963,
                0.6456893682479858,
                -0.28824514150619507
            ],
            "scale" : [
                0.375,
                0.3749999403953552,
                1.020992636680603
            ],
            "translation" : [
                -0.03686976432800293,
                0.6355111002922058,
                0.017349805682897568
            ]
        },
        {
            "mesh" : 3,
            "name" : "recipiente",
            "rotation" : [
                0.7071068286895752,
                0,
                0,
                0.7071067094802856
            ],
            "scale" : [
                0.3303627371788025,
                0.3303627371788025,
                0.3303627371788025
            ],
            "translation" : [
                0.0034178965725004673,
                0,
                0
            ]
        },
        {
            "mesh" : 4,
            "name" : "contenedorPie",
            "rotation" : [
                0.7071068286895752,
                0,
                0,
                0.7071067094802856
            ],
            "scale" : [
                0.3303627371788025,
                0.3303627371788025,
                0.3303627371788025
            ],
            "translation" : [
                0.01688985712826252,
                0.049589939415454865,
                -0.028471728786826134
            ]
        },
        {
            "mesh" : 5,
            "name" : "contenedorCuerpo",
            "rotation" : [
                0.7071068286895752,
                0,
                0,
                0.7071067094802856
            ],
            "scale" : [
                0.3303627371788025,
                0.3303627371788025,
                0.3303627371788025
            ],
            "translation" : [
                0.0034178965725004673,
                0,
                0
            ]
        }
    ],
    "animations" : [
        {
            "channels" : [
                {
                    "sampler" : 0,
                    "target" : {
                        "node" : 2,
                        "path" : "translation"
                    }
                },
                {
                    "sampler" : 1,
                    "target" : {
                        "node" : 2,
                        "path" : "rotation"
                    }
                },
                {
                    "sampler" : 2,
                    "target" : {
                        "node" : 2,
                        "path" : "scale"
                    }
                }
            ],
            "name" : "speedTest",
            "samplers" : [
                {
                    "input" : 28,
                    "interpolation" : "LINEAR",
                    "output" : 29
                },
                {
                    "input" : 28,
                    "interpolation" : "LINEAR",
                    "output" : 30
                },
                {
                    "input" : 28,
                    "interpolation" : "LINEAR",
                    "output" : 31
                }
            ]
        }
    ],
    "materials" : [
        {
            "alphaMode" : "BLEND",
            "doubleSided" : true,
            "name" : "discoInteriorM",
            "pbrMetallicRoughness" : {
                "baseColorTexture" : {
                    "index" : 0
                },
                "metallicFactor" : 0,
                "roughnessFactor" : 0.5
            }
        },
        {
            "alphaMode" : "BLEND",
            "name" : "cristalM",
            "pbrMetallicRoughness" : {
                "baseColorFactor" : [
                    0.800000011920929,
                    0.800000011920929,
                    0.800000011920929,
                    0.21276593208312988
                ],
                "metallicFactor" : 0,
                "roughnessFactor" : 0.5
            }
        },
        {
            "doubleSided" : true,
            "name" : "botonm",
            "pbrMetallicRoughness" : {
                "baseColorFactor" : [
                    0,
                    0,
                    0,
                    1
                ],
                "metallicFactor" : 0
            }
        },
        {
            "doubleSided" : true,
            "name" : "MaterialRojo",
            "pbrMetallicRoughness" : {
                "baseColorFactor" : [
                    0.8000000715255737,
                    0,
                    0.010073135606944561,
                    1
                ],
                "metallicFactor" : 0.45588234066963196,
                "roughnessFactor" : 0.5
            }
        },
        {
            "doubleSided" : true,
            "name" : "contenderoCuerpoM",
            "pbrMetallicRoughness" : {
                "baseColorFactor" : [
                    0,
                    0,
                    0,
                    1
                ],
                "metallicFactor" : 0.654411792755127,
                "roughnessFactor" : 0.34558823704719543
            }
        },
        {
            "doubleSided" : true,
            "name" : "contenedorPieM",
            "pbrMetallicRoughness" : {
                "baseColorFactor" : [
                    0.06071966513991356,
                    0.06071966513991356,
                    0.06071966513991356,
                    1
                ],
                "metallicFactor" : 0.35294151306152344,
                "roughnessFactor" : 0.8088235855102539
            }
        }
    ],
    "meshes" : [
        {
            "name" : "Speed_Meter",
            "primitives" : [
                {
                    "attributes" : {
                        "POSITION" : 0,
                        "NORMAL" : 1,
                        "TEXCOORD_0" : 2
                    },
                    "indices" : 3,
                    "material" : 0
                }
            ]
        },
        {
            "name" : "Speed_Meter.001",
            "primitives" : [
                {
                    "attributes" : {
                        "POSITION" : 4,
                        "NORMAL" : 5,
                        "TEXCOORD_0" : 6
                    },
                    "indices" : 7,
                    "material" : 1
                }
            ]
        },
        {
            "name" : "Speed_Meter.002",
            "primitives" : [
                {
                    "attributes" : {
                        "POSITION" : 8,
                        "NORMAL" : 9,
                        "TEXCOORD_0" : 10
                    },
                    "indices" : 11,
                    "material" : 2
                },
                {
                    "attributes" : {
                        "POSITION" : 12,
                        "NORMAL" : 13,
                        "TEXCOORD_0" : 14
                    },
                    "indices" : 15,
                    "material" : 3
                }
            ]
        },
        {
            "name" : "Speed_Meter.004",
            "primitives" : [
                {
                    "attributes" : {
                        "POSITION" : 16,
                        "NORMAL" : 17,
                        "TEXCOORD_0" : 18
                    },
                    "indices" : 19,
                    "material" : 4
                }
            ]
        },
        {
            "name" : "Speed_Meter.005",
            "primitives" : [
                {
                    "attributes" : {
                        "POSITION" : 20,
                        "NORMAL" : 21,
                        "TEXCOORD_0" : 22
                    },
                    "indices" : 23,
                    "material" : 5
                }
            ]
        },
        {
            "name" : "Speed_Meter.006",
            "primitives" : [
                {
                    "attributes" : {
                        "POSITION" : 24,
                        "NORMAL" : 25,
                        "TEXCOORD_0" : 26
                    },
                    "indices" : 27,
                    "material" : 4
                }
            ]
        }
    ],
    "textures" : [
        {
            "sampler" : 0,
            "source" : 0
        }
    ],
    "images" : [
        {
            "bufferView" : 4,
            "mimeType" : "image/png",
            "name" : "ngigometro"
        }
    ],
    "accessors" : [
        {
            "bufferView" : 0,
            "componentType" : 5126,
            "count" : 604,
            "max" : [
                7.126500129699707,
                7.119607925415039,
                -1.0704909563064575
            ],
            "min" : [
                -7.102272987365723,
                -7.119606971740723,
                -1.0704920291900635
            ],
            "type" : "VEC3"
        },
        {
            "bufferView" : 1,
            "componentType" : 5126,
            "count" : 604,
            "type" : "VEC3"
        },
        {
            "bufferView" : 2,
            "componentType" : 5126,
            "count" : 604,
            "type" : "VEC2"
        },
        {
            "bufferView" : 3,
            "componentType" : 5123,
            "count" : 615,
            "type" : "SCALAR"
        },
        {
            "bufferView" : 5,
            "componentType" : 5126,
            "count" : 123,
            "max" : [
                6.496033191680908,
                6.4887189865112305,
                -3.8591461181640625
            ],
            "min" : [
                -6.4718852043151855,
                -6.488717079162598,
                -3.8591480255126953
            ],
            "type" : "VEC3"
        },
        {
            "bufferView" : 6,
            "componentType" : 5126,
            "count" : 123,
            "type" : "VEC3"
        },
        {
            "bufferView" : 7,
            "componentType" : 5126,
            "count" : 123,
            "type" : "VEC2"
        },
        {
            "bufferView" : 8,
            "componentType" : 5123,
            "count" : 123,
            "type" : "SCALAR"
        },
        {
            "bufferView" : 9,
            "componentType" : 5126,
            "count" : 1063,
            "max" : [
                0.8879233002662659,
                0.889602541923523,
                0.23924067616462708
            ],
            "min" : [
                -0.8891177177429199,
                -0.8874384760856628,
                -0.1895523965358734
            ],
            "type" : "VEC3"
        },
        {
            "bufferView" : 10,
            "componentType" : 5126,
            "count" : 1063,
            "type" : "VEC3"
        },
        {
            "bufferView" : 11,
            "componentType" : 5126,
            "count" : 1063,
            "type" : "VEC2"
        },
        {
            "bufferView" : 12,
            "componentType" : 5123,
            "count" : 4188,
            "type" : "SCALAR"
        },
        {
            "bufferView" : 13,
            "componentType" : 5126,
            "count" : 638,
            "max" : [
                0.29980698227882385,
                -0.05755087733268738,
                0.20976334810256958
            ],
            "min" : [
                -0.3394889831542969,
                -4.718975067138672,
                0.1576327383518219
            ],
            "type" : "VEC3"
        },
        {
            "bufferView" : 14,
            "componentType" : 5126,
            "count" : 638,
            "type" : "VEC3"
        },
        {
            "bufferView" : 15,
            "componentType" : 5126,
            "count" : 638,
            "type" : "VEC2"
        },
        {
            "bufferView" : 16,
            "componentType" : 5123,
            "count" : 1455,
            "type" : "SCALAR"
        },
        {
            "bufferView" : 17,
            "componentType" : 5126,
            "count" : 7876,
            "max" : [
                6.954239845275879,
                6.9528069496154785,
                -1.0229899883270264
            ],
            "min" : [
                -6.951379776000977,
                -6.952805995941162,
                -3.921523094177246
            ],
            "type" : "VEC3"
        },
        {
            "bufferView" : 18,
            "componentType" : 5126,
            "count" : 7876,
            "type" : "VEC3"
        },
        {
            "bufferView" : 19,
            "componentType" : 5126,
            "count" : 7876,
            "type" : "VEC2"
        },
        {
            "bufferView" : 20,
            "componentType" : 5123,
            "count" : 43296,
            "type" : "SCALAR"
        },
        {
            "bufferView" : 21,
            "componentType" : 5126,
            "count" : 723,
            "max" : [
                9.661397933959961,
                9.797674179077148,
                0.1220085471868515
            ],
            "min" : [
                -9.747330665588379,
                -9.62530517578125,
                -0.07469145953655243
            ],
            "type" : "VEC3"
        },
        {
            "bufferView" : 22,
            "componentType" : 5126,
            "count" : 723,
            "type" : "VEC3"
        },
        {
            "bufferView" : 23,
            "componentType" : 5126,
            "count" : 723,
            "type" : "VEC2"
        },
        {
            "bufferView" : 24,
            "componentType" : 5123,
            "count" : 3288,
            "type" : "SCALAR"
        },
        {
            "bufferView" : 25,
            "componentType" : 5126,
            "count" : 1570,
            "max" : [
                8.226358413696289,
                8.226347923278809,
                -0.21038499474525452
            ],
            "min" : [
                -8.226341247558594,
                -8.226346969604492,
                -3.4204649925231934
            ],
            "type" : "VEC3"
        },
        {
            "bufferView" : 26,
            "componentType" : 5126,
            "count" : 1570,
            "type" : "VEC3"
        },
        {
            "bufferView" : 27,
            "componentType" : 5126,
            "count" : 1570,
            "type" : "VEC2"
        },
        {
            "bufferView" : 28,
            "componentType" : 5123,
            "count" : 6480,
            "type" : "SCALAR"
        },
        {
            "bufferView" : 29,
            "componentType" : 5126,
            "count" : 101,
            "max" : [
                4.166666666666667
            ],
            "min" : [
                0
            ],
            "type" : "SCALAR"
        },
        {
            "bufferView" : 30,
            "componentType" : 5126,
            "count" : 101,
            "type" : "VEC3"
        },
        {
            "bufferView" : 31,
            "componentType" : 5126,
            "count" : 101,
            "type" : "VEC4"
        },
        {
            "bufferView" : 32,
            "componentType" : 5126,
            "count" : 101,
            "type" : "VEC3"
        }
    ],
    "bufferViews" : [
        {
            "buffer" : 0,
            "byteLength" : 7248,
            "byteOffset" : 0
        },
        {
            "buffer" : 0,
            "byteLength" : 7248,
            "byteOffset" : 7248
        },
        {
            "buffer" : 0,
            "byteLength" : 4832,
            "byteOffset" : 14496
        },
        {
            "buffer" : 0,
            "byteLength" : 1230,
            "byteOffset" : 19328
        },
        {
            "buffer" : 0,
            "byteLength" : 347541,
            "byteOffset" : 20560
        },
        {
            "buffer" : 0,
            "byteLength" : 1476,
            "byteOffset" : 368104
        },
        {
            "buffer" : 0,
            "byteLength" : 1476,
            "byteOffset" : 369580
        },
        {
            "buffer" : 0,
            "byteLength" : 984,
            "byteOffset" : 371056
        },
        {
            "buffer" : 0,
            "byteLength" : 246,
            "byteOffset" : 372040
        },
        {
            "buffer" : 0,
            "byteLength" : 12756,
            "byteOffset" : 372288
        },
        {
            "buffer" : 0,
            "byteLength" : 12756,
            "byteOffset" : 385044
        },
        {
            "buffer" : 0,
            "byteLength" : 8504,
            "byteOffset" : 397800
        },
        {
            "buffer" : 0,
            "byteLength" : 8376,
            "byteOffset" : 406304
        },
        {
            "buffer" : 0,
            "byteLength" : 7656,
            "byteOffset" : 414680
        },
        {
            "buffer" : 0,
            "byteLength" : 7656,
            "byteOffset" : 422336
        },
        {
            "buffer" : 0,
            "byteLength" : 5104,
            "byteOffset" : 429992
        },
        {
            "buffer" : 0,
            "byteLength" : 2910,
            "byteOffset" : 435096
        },
        {
            "buffer" : 0,
            "byteLength" : 94512,
            "byteOffset" : 438008
        },
        {
            "buffer" : 0,
            "byteLength" : 94512,
            "byteOffset" : 532520
        },
        {
            "buffer" : 0,
            "byteLength" : 63008,
            "byteOffset" : 627032
        },
        {
            "buffer" : 0,
            "byteLength" : 86592,
            "byteOffset" : 690040
        },
        {
            "buffer" : 0,
            "byteLength" : 8676,
            "byteOffset" : 776632
        },
        {
            "buffer" : 0,
            "byteLength" : 8676,
            "byteOffset" : 785308
        },
        {
            "buffer" : 0,
            "byteLength" : 5784,
            "byteOffset" : 793984
        },
        {
            "buffer" : 0,
            "byteLength" : 6576,
            "byteOffset" : 799768
        },
        {
            "buffer" : 0,
            "byteLength" : 18840,
            "byteOffset" : 806344
        },
        {
            "buffer" : 0,
            "byteLength" : 18840,
            "byteOffset" : 825184
        },
        {
            "buffer" : 0,
            "byteLength" : 12560,
            "byteOffset" : 844024
        },
        {
            "buffer" : 0,
            "byteLength" : 12960,
            "byteOffset" : 856584
        },
        {
            "buffer" : 0,
            "byteLength" : 404,
            "byteOffset" : 869544
        },
        {
            "buffer" : 0,
            "byteLength" : 1212,
            "byteOffset" : 869948
        },
        {
            "buffer" : 0,
            "byteLength" : 1616,
            "byteOffset" : 871160
        },
        {
            "buffer" : 0,
            "byteLength" : 1212,
            "byteOffset" : 872776
        }
    ],
    "samplers" : [
        {
            "magFilter" : 9729,
            "minFilter" : 9987
        }
    ],
    "buffers" : [
        {
            "byteLength" : 873988,
            "uri" : "data:application/octet-stream;base64,"
        }
    ]
}
